<?xml version="1.0" standalone="no"?><!DOCTYPE svg PUBLIC "-//W3C//DTD SVG 1.1//EN" "http://www.w3.org/Graphics/SVG/1.1/DTD/svg11.dtd"><svg class="icon" width="200px" height="200.00px" viewBox="0 0 1024 1024" version="1.1" xmlns="http://www.w3.org/2000/svg"><path d="M878.336 512.512c0 202.368-164.096 366.464-366.464 366.464S145.408 714.88 145.408 512.512c0-202.368 164.096-366.464 366.464-366.464 48.768 0 95.232 9.472 137.728 26.752 134.144 54.4 228.736 185.984 228.736 339.712z" fill="#fbdf6c" /><path d="M581.632 824.96c-202.368 0-366.464-164.096-366.464-366.464 0-108.16 46.848-205.312 121.344-272.384-118.656 60.672-199.936 184.064-199.936 326.528 0 202.368 164.096 366.464 366.464 366.464 94.208 0 180.224-35.584 245.12-94.08-49.792 25.472-106.496 39.936-166.528 39.936z" fill="#fac56b" /><path d="M299.648 486.912c-27.264 0-49.28 22.016-49.28 49.28h98.56c0-27.136-22.144-49.28-49.28-49.28z m429.824 0c-27.264 0-49.28 22.016-49.28 49.28h98.56c0-27.136-22.144-49.28-49.28-49.28z" fill="#f8a880" /><path d="M672.896 349.312c0 19.2-15.616 34.816-34.816 34.816s-34.816-15.616-34.816-34.816c0-8.192-6.656-14.848-14.848-14.848-8.192 0-14.848 6.656-14.848 14.848 0 35.712 29.056 64.64 64.64 64.64s64.64-29.056 64.64-64.64c0-8.192-6.656-14.848-14.848-14.848-8.448-0.128-15.104 6.528-15.104 14.848m-281.856 64.64c35.712 0 64.64-29.056 64.64-64.64 0-8.192-6.656-14.848-14.848-14.848-8.192 0-14.848 6.656-14.848 14.848 0 19.2-15.616 34.816-34.816 34.816s-34.816-15.616-34.816-34.816c0-8.192-6.656-14.848-14.848-14.848-8.192 0-14.848 6.656-14.848 14.848-0.256 35.584 28.672 64.64 64.384 64.64" fill="#595068" /><path d="M514.56 894.08c-51.584 0-101.76-10.112-148.864-30.08-45.568-19.328-86.4-46.848-121.6-81.92-35.072-35.072-62.72-76.032-81.92-121.6-19.968-47.232-30.08-97.28-30.08-148.864s10.112-101.76 30.08-148.864c19.328-45.568 46.848-86.4 81.92-121.6s76.032-62.72 121.6-81.92c47.104-19.968 97.28-30.08 148.864-30.08s101.76 10.112 148.864 30.08c45.568 19.328 86.4 46.848 121.6 81.92 35.072 35.072 62.72 76.032 81.92 121.6 19.968 47.104 30.08 97.28 30.08 148.864s-10.112 101.76-30.08 148.864c-19.328 45.568-46.848 86.4-81.92 121.6-35.072 35.072-76.032 62.72-121.6 81.92-47.232 19.968-97.28 30.08-148.864 30.08z m0-737.792c-195.84 0-355.2 159.36-355.2 355.2S318.592 866.816 514.56 866.816s355.2-159.36 355.2-355.2S710.4 156.288 514.56 156.288z" fill="#595068" /><path d="M637.44 683.52c-1.92 0-3.968-0.512-5.76-1.792-0.512-0.256-48.384-32.128-113.92-32.128-65.792 0-113.536 31.872-113.92 32.128-4.736 3.2-11.008 1.92-14.208-2.688-3.2-4.736-1.92-11.008 2.688-14.208 2.176-1.408 53.376-35.712 125.44-35.712s123.264 34.176 125.44 35.712c4.736 3.2 5.888 9.6 2.688 14.208-1.92 2.944-5.12 4.48-8.448 4.48z" fill="#595068" /></svg>