<?xml version="1.0" standalone="no"?><!DOCTYPE svg PUBLIC "-//W3C//DTD SVG 1.1//EN" "http://www.w3.org/Graphics/SVG/1.1/DTD/svg11.dtd"><svg class="icon" width="200px" height="200.00px" viewBox="0 0 1024 1024" version="1.1" xmlns="http://www.w3.org/2000/svg"><path d="M524.5705 639.720122c-70.56113 0-127.944024-57.382895-127.944024-127.944024s57.382895-127.944024 127.944024-127.944025 127.944024 57.382895 127.944025 127.944025-57.382895 127.944024-127.944025 127.944024M511.776098 0c-15.609171 0-31.026426 0.95958-46.251765 2.302992l-40.814144 3.646405-13.753982 38.639096-32.177922 90.456425c-13.434123 4.733929-26.548385 10.17155-39.342788 16.312863l-86.810021-41.261948-37.039795-17.592303-31.410258 26.228525c-23.669645 19.767352-45.676017 41.773724-65.443368 65.443368l-26.228525 31.410258 17.592303 37.039795 41.261948 86.810021c-6.141313 12.794402-11.578934 25.908665-16.312863 39.342788l-90.456425 32.177922-38.639096 13.753982-3.646405 40.814144A525.530081 525.530081 0 0 0 0 511.776098c0 15.609171 0.95958 31.026426 2.302992 46.251765l3.646405 40.814144 38.639096 13.753982 90.456425 32.177922c4.733929 13.434123 10.17155 26.548385 16.312863 39.342788l-41.261948 86.810021-17.592303 37.039795 26.228525 31.410258c19.767352 23.669645 41.773724 45.676017 65.443368 65.443368l31.410258 26.228525 37.039795-17.592303 86.810021-41.261948c12.794402 6.141313 25.908665 11.578934 39.342788 16.312863l32.177922 90.456425 13.753982 38.639096 40.814144 3.646404c15.225339 1.343412 30.642594 2.302992 46.251765 2.302993s31.026426-0.95958 46.251765-2.302993l40.814144-3.646404 13.753982-38.639096 32.177922-90.456425c13.434123-4.733929 26.548385-10.17155 39.342788-16.312863l86.810021 41.261948 37.039795 17.592303 31.410258-26.228525c23.669645-19.767352 45.676017-41.773724 65.443368-65.443368l26.228525-31.410258-17.592303-37.039795-41.261948-86.810021c6.141313-12.794402 11.578934-25.908665 16.312863-39.342788l90.456425-32.177922 38.639096-13.753982 3.646404-40.814144C1022.592616 542.802524 1023.552196 527.385269 1023.552196 511.776098s-0.95958-31.026426-2.302993-46.251765l-3.646404-40.814144-38.639096-13.753982-90.456425-32.177922a391.636659 391.636659 0 0 0-16.312863-39.342788l41.261948-86.810021 17.592303-37.039795-26.228525-31.410258a518.429187 518.429187 0 0 0-65.443368-65.443368l-31.410258-26.228525-37.039795 17.592303-86.810021 41.261948a391.636659 391.636659 0 0 0-39.342788-16.312863L612.595989 44.588493 598.842007 5.949397 558.027863 2.302992A525.530081 525.530081 0 0 0 511.776098 0m12.794402 703.692135a191.916037 191.916037 0 1 0 0-383.832074 191.916037 191.916037 0 0 0 0 383.832074M511.776098 63.972012c13.690011 0 27.188105 0.831636 40.558256 2.047105l42.92522 120.779159c31.090398 7.996502 60.38958 20.215156 87.257825 36.144187l115.917286-55.079903c20.726932 17.336415 39.918536 36.528019 57.254951 57.254951l-55.079903 115.917286c15.929031 26.868245 28.147685 56.167427 36.144187 87.257825l120.779159 42.92522c1.215468 13.370151 2.047104 26.868245 2.047105 40.558256 0 13.690011-0.831636 27.188105-2.047105 40.558256l-120.779159 42.92522a334.12582 334.12582 0 0 1-36.144187 87.257825l55.079903 115.917286a456.696195 456.696195 0 0 1-57.254951 57.254951l-115.917286-55.079903c-26.868245 15.929031-56.167427 28.147685-87.257825 36.144187l-42.92522 120.779159A447.164366 447.164366 0 0 1 511.776098 959.580184a447.164366 447.164366 0 0 1-40.558256-2.047105l-42.92522-120.779159a334.12582 334.12582 0 0 1-87.257825-36.144187l-115.917286 55.079903a456.696195 456.696195 0 0 1-57.254951-57.254951l55.079903-115.917286a334.12582 334.12582 0 0 1-36.144187-87.257825l-120.779159-42.92522A447.164366 447.164366 0 0 1 63.972012 511.776098c0-13.690011 0.831636-27.188105 2.047105-40.558256l120.779159-42.92522c7.996502-31.090398 20.215156-60.38958 36.144187-87.257825l-55.079903-115.917286c17.336415-20.726932 36.528019-39.918536 57.254951-57.254951l115.917286 55.079903c26.868245-15.929031 56.167427-28.147685 87.257825-36.144187l42.92522-120.779159A447.164366 447.164366 0 0 1 511.776098 63.972012" fill="#4d97fc" /></svg>