<?xml version="1.0" standalone="no"?><!DOCTYPE svg PUBLIC "-//W3C//DTD SVG 1.1//EN" "http://www.w3.org/Graphics/SVG/1.1/DTD/svg11.dtd"><svg class="icon" width="200px" height="200.00px" viewBox="0 0 1024 1024" version="1.1" xmlns="http://www.w3.org/2000/svg"><path d="M631.65 122.328h189.31c17.21 0 27.534 9.18 27.534 27.536v161.774c0 17.21 18.357 24.093 36.715 24.093 18.357 0 30.977-13.768 30.977-30.977V147.569c0-51.63-41.303-92.934-92.932-92.934h-189.31c-17.21 0-30.977 13.768-30.977 30.977 0 17.21 11.472 36.716 28.684 36.716z m-269.622 674.63h-162.92c-17.21 0-27.538-9.179-27.538-27.537V621.416c0-17.209-18.356-37.861-36.714-37.861-18.356 0-29.83 13.766-29.83 30.976V769.42c0 51.63 41.304 92.934 92.934 92.934H352.85c17.21 0 30.977-13.767 30.977-30.977 2.296-14.915-4.59-34.419-21.798-34.419zM136.003 335.731c17.21 0 36.714-20.65 36.714-37.862V148.716c0-17.21 9.18-27.536 27.535-27.536h148.006c17.21 0 37.863-18.357 37.863-36.715 0-18.357-13.769-29.83-30.979-29.83H197.959c-51.63 0-92.934 41.304-92.934 92.934v154.89c0 18.357 13.768 33.272 30.978 33.272z m748.06 247.824c-17.21 0-36.716 20.652-36.716 37.861v148.005c0 17.21-9.178 27.537-27.535 27.537H631.651c-17.211 0-28.684 18.356-28.684 36.715 0 18.356 13.767 30.977 30.977 30.977h185.868c51.63 0 92.933-41.304 92.933-92.934V614.531c2.295-16.062-11.474-30.976-28.683-30.976z m37.862-151.448H98.14c-18.356 0-33.273 14.915-33.273 33.273 0 18.357 14.916 33.273 33.273 33.273h823.783c18.356 0 33.272-14.916 33.272-33.273 0-18.358-14.914-33.273-33.271-33.273z" fill="#1296db" /></svg>