<?xml version="1.0" standalone="no"?><!DOCTYPE svg PUBLIC "-//W3C//DTD SVG 1.1//EN" "http://www.w3.org/Graphics/SVG/1.1/DTD/svg11.dtd"><svg class="icon" width="200px" height="200.00px" viewBox="0 0 1024 1024" version="1.1" xmlns="http://www.w3.org/2000/svg"><path d="M919.1296 0 104.8704 0C47.0528 0 0 47.0144 0 104.832l0 814.336C0 976.9856 47.0528 1024 104.8704 1024l814.2592 0C976.9472 1024 1024 976.9856 1024 919.168L1024 104.832C1024 47.0144 976.9472 0 919.1296 0zM973.312 919.168c0 29.8624-24.32 54.144-54.1824 54.144L104.8704 973.312c-29.8624 0-54.1696-24.2816-54.1696-54.144L50.7008 104.832c0-29.8624 24.32-54.1312 54.1696-54.1312l814.2592 0c29.8624 0 54.1824 24.2688 54.1824 54.1312L973.312 919.168z" fill="#c52811" /><path d="M802.1376 200.32c-27.008 0-48.9472 21.9776-48.9472 48.9856 0 14.2592 6.4128 27.4816 18.2144 37.2352l2.2272 1.8176-0.4736 2.8544C752.5504 420.3904 642.688 514.176 512 514.176c-130.688 0-240.5504-93.7856-261.1456-222.976l-0.4736-2.8544 2.2144-1.8176c11.8016-9.7408 18.2144-22.976 18.2144-37.2352 0-27.008-21.9392-48.9856-48.9472-48.9856-27.0848 0-49.0368 21.9776-49.0368 48.9856 0 16.9984 9.2672 32.5504 24.7936 41.664l2.1376 1.1904 0.32 2.4576C222.4128 448.6784 356.5184 564.8768 512 564.8768s289.5872-116.1984 311.9232-270.2592l0.3072-2.4576 2.1376-1.1904c15.5264-9.1008 24.7936-24.6656 24.7936-41.664C851.1616 222.2976 829.2224 200.32 802.1376 200.32z" fill="#c52811" /></svg>