<?xml version="1.0" standalone="no"?><!DOCTYPE svg PUBLIC "-//W3C//DTD SVG 1.1//EN" "http://www.w3.org/Graphics/SVG/1.1/DTD/svg11.dtd"><svg class="icon" width="200px" height="200.00px" viewBox="0 0 1024 1024" version="1.1" xmlns="http://www.w3.org/2000/svg"><path d="M595.701686 661.015734c-1.011501-0.36125-2.890002-0.722501-4.768503-1.083751-8.670006-2.312002-17.340013-4.696253-25.287519-7.514005h-0.1445c-49.997037-17.556763-80.992309-46.384534-80.992309-75.356805 0-11.776759 4.768503-22.831017 15.244761-34.752276 4.118253-3.829253 7.947506-7.875256 11.849009-12.210259 34.246525-39.015029 53.826289-94.647569 53.826289-152.592112 0-114.010584-74.128554-206.707401-165.235871-206.707401s-165.163621 92.624568-165.163621 206.635151c0 64.808297 23.409017 124.270091 64.085797 163.28512 0.07225 0.07225 0.07225 0.1445 0.1445 0.21675 8.381006 8.164256 18.423763 21.313766 18.423764 37.353278 0 27.88852-31.212023 55.704791-81.49806 72.539053-0.21675 0.07225-0.50575 0.1445-0.722501 0.1445-7.297255 1.878501-13.58301 3.612503-23.120016 6.719255-112.276582 36.125026-179.324631 101.439074-179.324632 174.628378 0 11.560008 9.392507 20.952515 20.952516 20.952515h689.337754c11.560008 0 20.952515-9.392507 20.952516-20.952515-0.1445-70.010301-62.857546-133.951598-168.559374-171.304876z" fill="#e6e6e6" /><path d="M852.189374 537.034643V418.327806c0-13.79976-11.198758-25.070768-25.070768-25.070768h-4.840754c-13.79976 0-25.070768 11.198758-25.070768 25.070768v118.706837H681.823749c-13.79976 0-25.070768 11.198758-25.070768 25.070769 0 13.79976 11.198758 25.070768 25.070768 25.070768h115.455585v115.455585c0 13.79976 11.198758 25.070768 25.070768 25.070768h4.840754c13.79976 0 25.070768-11.198758 25.070768-25.070768V587.10393h113.866084c13.79976 0 25.070768-11.198758 25.070768-25.070768 0-13.79976-11.198758-25.070768-25.070768-25.070769h-113.938334z" fill="#e6e6e6" /></svg>