<?xml version="1.0" standalone="no"?><!DOCTYPE svg PUBLIC "-//W3C//DTD SVG 1.1//EN" "http://www.w3.org/Graphics/SVG/1.1/DTD/svg11.dtd"><svg class="icon" width="200px" height="200.00px" viewBox="0 0 1024 1024" version="1.1" xmlns="http://www.w3.org/2000/svg"><path d="M782.210487 0h-541.321586C108.265113 0 0.000796 108.264317 0.000796 240.888106v541.321586c0 132.623789 107.362115 240.888106 240.888105 240.888105h541.321586c132.623789 0 240.888106-107.362115 240.888106-240.888105v-541.321586c0-132.623789-108.264317-240.888106-240.888106-240.888106z m-270.660793 784.014097c-37.892511 0-74.882819-5.413216-109.16652-15.337445-9.924229 1.804405-19.848458 4.511013-29.772687 9.022026l-66.762995 42.403525c-19.848458 13.53304-26.163877 8.119824-18.946256-15.337445l15.337445-52.327754c0.902203-10.826432 0-20.750661-2.706608-30.674889-81.198238-54.132159-132.623789-138.037004-132.623788-231.86608 0-162.396476 155.178855-294.118062 346.445815-294.118061 116.384141 0 219.235242 49.621145 282.389427 124.503964l-322.086344 153.37445c-22.555066 13.53304-44.20793 16.239648-66.762995-4.511014l-54.132159-46.012334c-23.457269-7.217621-31.577093 0.902203-25.261674 22.555066l55.936564 136.232599c12.630837 20.750661 30.67489 27.066079 62.251982 4.511013l374.414097-228.257269c23.457269 39.696916 36.990308 84.807048 36.990309 132.623789 0.902203 161.494273-155.178855 293.215859-345.543613 293.215859z m0 0" fill="#58ae4c" /></svg>