<?xml version="1.0" standalone="no"?><!DOCTYPE svg PUBLIC "-//W3C//DTD SVG 1.1//EN" "http://www.w3.org/Graphics/SVG/1.1/DTD/svg11.dtd"><svg class="icon" width="200px" height="200.00px" viewBox="0 0 1024 1024" version="1.1" xmlns="http://www.w3.org/2000/svg"><path d="M482.56 403.2l-286.08 241.152 363.904 0L854.208 403.2 482.56 403.2zM520.448 560.512c-20.416 0-36.928-16.512-36.928-36.928s16.512-36.992 36.928-36.992S557.44 503.168 557.44 523.584 540.864 560.512 520.448 560.512zM512 64C264.576 64 64 264.576 64 512c0 247.36 200.576 448 448 448s448-200.64 448-448C960 264.576 759.424 64 512 64zM512.896 879.936c-201.6 0-365.056-163.456-365.056-365.12 0-201.6 163.456-365.056 365.056-365.056s365.056 163.456 365.056 365.056C877.952 716.48 714.496 879.936 512.896 879.936z" fill="#8a8a8a" /></svg>