<?xml version="1.0" standalone="no"?><!DOCTYPE svg PUBLIC "-//W3C//DTD SVG 1.1//EN" "http://www.w3.org/Graphics/SVG/1.1/DTD/svg11.dtd"><svg class="icon" width="200px" height="200.00px" viewBox="0 0 1024 1024" version="1.1" xmlns="http://www.w3.org/2000/svg"><path d="M768 480h-96c-19.2 0-32 12.8-32 32s12.8 32 32 32h96c19.2 0 32-12.8 32-32s-12.8-32-32-32zM768 416c19.2 0 32-12.8 32-32s-12.8-32-32-32h-128c-19.2 0-32 12.8-32 32s12.8 32 32 32h128zM508.8 502.4c22.4-22.4 35.2-51.2 35.2-86.4 0-70.4-57.6-128-128-128s-128 57.6-128 128c0 35.2 12.8 64 35.2 86.4-57.6 32-99.2 96-99.2 169.6v32c0 9.6 3.2 16 9.6 22.4s12.8 9.6 22.4 9.6h320c9.6 0 16-3.2 22.4-9.6s9.6-12.8 9.6-22.4v-32c0-73.6-41.6-134.4-99.2-169.6zM352 416c0-35.2 28.8-64 64-64s64 28.8 64 64-28.8 64-64 64-64-28.8-64-64z m-64 256c0-70.4 57.6-128 128-128s128 57.6 128 128H288zM768 608h-64c-19.2 0-32 12.8-32 32s12.8 32 32 32h64c19.2 0 32-12.8 32-32s-12.8-32-32-32z" fill="#8a8a8a" /></svg>